<?xml version="1.0" encoding="UTF-8" standalone="no"?>
<!DOCTYPE svg PUBLIC "-//W3C//DTD SVG 20010904//EN" "http://www.w3.org/TR/2001/REC-SVG-20010904/DTD/svg10.dtd">
<svg version="1.0" xmlns="http://www.w3.org/2000/svg" width="512.000000pt" height="512.000000pt" viewBox="0 0 512.000000 512.000000" preserveAspectRatio="xMidYMid meet">

<g transform="translate(0.000000,512.000000) scale(0.100000,-0.100000)" fill="#000000" stroke="none">
<path d="M1167 5104 c-399 -72 -711 -372 -803 -769 -18 -76 -19 -149 -19 -1440 l0 -1360 23 -90 c31 -123 115 -291 197 -392 110 -137 280 -258 443 -314 143 -50 162 -52 642 -56 l455 -4 225 -335 c123 -184 227 -334 231 -334 4 0 105 150 226 334 l218 335 460 3 460 4 100 27 c359 97 623 361 723 723 l27 99 0 1355 c0 1082 -3 1367 -13 1415 -87 396 -360 684 -747 788 -80 21 -82 21 -1425 23 -1123 2 -1358 0 -1423 -12z m2757 -404 c109 -28 190 -74 272 -155 79 -78 121 -146 156 -250 l23 -70 0 -1325 0 -1325 -27 -80 c-71 -207 -239 -357 -450 -399 -64 -13 -164 -16 -593 -16 l-515 0 -115 -175 c-63 -96 -116 -175 -118 -175 -3 0 -58 79 -123 175 l-118 175 -516 0 c-576 0 -597 2 -729 67 -56 27 -96 58 -151 113 -87 86 -132 164 -160 276 -19 75 -20 115 -20 1364 0 1249 1 1289 20 1364 29 113 73 190 160 276 85 86 163 131 272 160 70 18 126 19 1364 19 1254 1 1293 0 1368 -19z"/>
<path d="M1960 4195 l0 -135 -135 0 -135 0 0 -200 0 -200 135 0 135 0 0 -200 0 -200 -135 0 -135 0 0 -200 0 -200 135 0 135 0 0 -135 0 -135 200 0 200 0 0 135 0 135 200 0 200 0 0 -135 0 -135 200 0 200 0 0 135 0 135 135 0 135 0 0 200 0 200 -135 0 -135 0 0 200 0 200 135 0 135 0 0 200 0 200 -135 0 -135 0 0 135 0 135 -200 0 -200 0 0 -135 0 -135 -200 0 -200 0 0 135 0 135 -200 0 -200 0 0 -135z m800 -735 l0 -200 -200 0 -200 0 0 200 0 200 200 0 200 0 0 -200z"/>
<path d="M1149 2527 c-24 -13 -57 -43 -74 -66 -26 -37 -30 -51 -30 -111 0 -65 2 -71 50 -141 68 -102 298 -329 415 -411 243 -171 512 -280 795 -320 129 -18 427 -15 545 6 292 52 529 150 759 314 174 124 386 346 446 466 31 63 31 107 1 173 -32 69 -87 105 -164 111 -85 5 -132 -23 -207 -123 -159 -215 -406 -396 -658 -484 -160 -56 -272 -74 -462 -75 -254 -1 -408 35 -630 144 -194 96 -383 253 -508 421 -86 117 -178 149 -278 96z"/>
</g>
</svg>